<?xml version="1.0" encoding="utf-8"?>
<!-- Generator: Adobe Illustrator 26.0.1, SVG Export Plug-In . SVG Version: 6.00 Build 0)  -->
<svg version="1.1" id="Capa_1" xmlns="http://www.w3.org/2000/svg" xmlns:xlink="http://www.w3.org/1999/xlink" x="0px" y="0px"
	 viewBox="0 0 1080 561" style="enable-background:new 0 0 1080 561;" xml:space="preserve">
<g>
	<g>
		<g>
			<path d="M200.35,474.42v32.47h-5.33v-22.23l-9.9,22.23h-3.69l-9.95-22.23v22.23h-5.33v-32.47h5.75l11.4,25.46l11.35-25.46H200.35
				z"/>
		</g>
		<g>
			<path d="M210.7,487.03c1.07-1.99,2.54-3.54,4.39-4.65c1.85-1.11,3.9-1.66,6.14-1.66c2.02,0,3.79,0.4,5.3,1.19
				c1.51,0.79,2.72,1.78,3.62,2.97v-3.74h5.37v25.74h-5.37v-3.83c-0.9,1.21-2.13,2.23-3.69,3.04s-3.33,1.21-5.33,1.21
				c-2.21,0-4.24-0.57-6.07-1.71c-1.84-1.14-3.29-2.72-4.37-4.76c-1.08-2.04-1.61-4.35-1.61-6.94S209.63,489.02,210.7,487.03z
				 M229.06,489.36c-0.73-1.31-1.69-2.3-2.87-2.99c-1.18-0.68-2.46-1.03-3.83-1.03c-1.37,0-2.65,0.33-3.83,1.01
				c-1.18,0.67-2.14,1.65-2.87,2.94c-0.73,1.29-1.1,2.83-1.1,4.6s0.37,3.33,1.1,4.67c0.73,1.34,1.7,2.36,2.89,3.06
				c1.2,0.7,2.47,1.05,3.81,1.05c1.37,0,2.65-0.34,3.83-1.03c1.18-0.68,2.14-1.69,2.87-3.01c0.73-1.32,1.1-2.87,1.1-4.65
				S229.79,490.67,229.06,489.36z"/>
		</g>
		<g>
			<path d="M264.42,481.99c1.6,0.84,2.86,2.09,3.76,3.74c0.9,1.65,1.35,3.64,1.35,5.98v15.18h-5.28V492.5c0-2.31-0.58-4.07-1.73-5.3
				c-1.15-1.23-2.73-1.85-4.72-1.85c-1.99,0-3.57,0.62-4.74,1.85c-1.17,1.23-1.75,3-1.75,5.3v14.39h-5.33v-25.74h5.33v2.94
				c0.87-1.06,1.99-1.88,3.34-2.48c1.36-0.59,2.8-0.89,4.32-0.89C261,480.72,262.82,481.14,264.42,481.99z"/>
		</g>
		<g>
			<path d="M286.02,485.49v14.25c0,0.96,0.23,1.66,0.68,2.08c0.45,0.42,1.22,0.63,2.31,0.63h3.27v4.44h-4.2
				c-2.4,0-4.24-0.56-5.51-1.68c-1.28-1.12-1.92-2.94-1.92-5.46v-14.25h-3.04v-4.34h3.04v-6.4h5.37v6.4h6.26v4.34H286.02z"/>
		</g>
		<g>
			<path d="M324.05,496h-19.67c0.16,2.06,0.92,3.7,2.29,4.95c1.37,1.25,3.05,1.87,5.04,1.87c2.87,0,4.89-1.2,6.07-3.6h5.75
				c-0.78,2.37-2.19,4.3-4.23,5.82c-2.04,1.51-4.57,2.26-7.59,2.26c-2.46,0-4.66-0.55-6.61-1.66c-1.95-1.1-3.47-2.66-4.58-4.67
				c-1.11-2.01-1.66-4.34-1.66-6.98c0-2.65,0.54-4.98,1.61-6.98c1.07-2.01,2.58-3.56,4.53-4.65c1.95-1.09,4.18-1.64,6.7-1.64
				c2.43,0,4.59,0.53,6.49,1.59c1.9,1.06,3.38,2.55,4.44,4.46c1.06,1.92,1.59,4.12,1.59,6.61
				C324.23,494.35,324.17,495.22,324.05,496z M318.68,491.7c-0.03-1.96-0.73-3.54-2.1-4.72c-1.37-1.18-3.07-1.77-5.09-1.77
				c-1.84,0-3.41,0.58-4.72,1.75c-1.31,1.17-2.09,2.75-2.34,4.74H318.68z"/>
		</g>
		<g>
			<path d="M351.4,481.99c1.6,0.84,2.86,2.09,3.76,3.74c0.9,1.65,1.35,3.64,1.35,5.98v15.18h-5.28V492.5c0-2.31-0.58-4.07-1.73-5.3
				c-1.15-1.23-2.73-1.85-4.72-1.85c-1.99,0-3.57,0.62-4.74,1.85c-1.17,1.23-1.75,3-1.75,5.3v14.39h-5.33v-25.74h5.33v2.94
				c0.87-1.06,1.99-1.88,3.34-2.48s2.8-0.89,4.32-0.89C347.98,480.72,349.79,481.14,351.4,481.99z"/>
		</g>
		<g>
			<path d="M367.07,476.75c-0.66-0.65-0.98-1.46-0.98-2.43c0-0.96,0.33-1.78,0.98-2.43c0.65-0.65,1.46-0.98,2.43-0.98
				c0.93,0,1.73,0.33,2.38,0.98c0.65,0.65,0.98,1.47,0.98,2.43c0,0.97-0.33,1.78-0.98,2.43c-0.66,0.65-1.45,0.98-2.38,0.98
				C368.53,477.73,367.72,477.4,367.07,476.75z M372.11,481.14v25.74h-5.33v-25.74H372.11z"/>
		</g>
		<g>
			<path d="M419.22,481.99c1.6,0.84,2.87,2.09,3.78,3.74c0.92,1.65,1.38,3.64,1.38,5.98v15.18h-5.28V492.5
				c0-2.31-0.58-4.07-1.73-5.3c-1.15-1.23-2.73-1.85-4.72-1.85s-3.57,0.62-4.74,1.85c-1.17,1.23-1.75,3-1.75,5.3v14.39h-5.28V492.5
				c0-2.31-0.58-4.07-1.73-5.3c-1.15-1.23-2.73-1.85-4.72-1.85s-3.57,0.62-4.74,1.85c-1.17,1.23-1.75,3-1.75,5.3v14.39h-5.33v-25.74
				h5.33v2.94c0.87-1.06,1.98-1.88,3.32-2.48c1.34-0.59,2.77-0.89,4.3-0.89c2.06,0,3.89,0.44,5.51,1.31
				c1.62,0.87,2.86,2.13,3.74,3.78c0.78-1.56,1.99-2.79,3.64-3.71c1.65-0.92,3.43-1.38,5.33-1.38
				C415.81,480.72,417.62,481.14,419.22,481.99z"/>
		</g>
		<g>
			<path d="M434.94,476.75c-0.66-0.65-0.98-1.46-0.98-2.43c0-0.96,0.33-1.78,0.98-2.43c0.65-0.65,1.46-0.98,2.43-0.98
				c0.93,0,1.73,0.33,2.38,0.98c0.65,0.65,0.98,1.47,0.98,2.43c0,0.97-0.33,1.78-0.98,2.43c-0.66,0.65-1.45,0.98-2.38,0.98
				C436.41,477.73,435.6,477.4,434.94,476.75z M439.99,481.14v25.74h-5.33v-25.74H439.99z"/>
		</g>
		<g>
			<path d="M473.9,496h-19.67c0.16,2.06,0.92,3.7,2.29,4.95c1.37,1.25,3.05,1.87,5.04,1.87c2.87,0,4.89-1.2,6.07-3.6h5.75
				c-0.78,2.37-2.19,4.3-4.23,5.82c-2.04,1.51-4.57,2.26-7.59,2.26c-2.46,0-4.66-0.55-6.61-1.66c-1.95-1.1-3.47-2.66-4.58-4.67
				c-1.11-2.01-1.66-4.34-1.66-6.98c0-2.65,0.54-4.98,1.61-6.98c1.07-2.01,2.58-3.56,4.53-4.65c1.95-1.09,4.18-1.64,6.7-1.64
				c2.43,0,4.59,0.53,6.49,1.59c1.9,1.06,3.38,2.55,4.44,4.46c1.06,1.92,1.59,4.12,1.59,6.61C474.09,494.35,474.02,495.22,473.9,496
				z M468.53,491.7c-0.03-1.96-0.73-3.54-2.1-4.72c-1.37-1.18-3.07-1.77-5.09-1.77c-1.84,0-3.41,0.58-4.72,1.75
				c-1.31,1.17-2.09,2.75-2.34,4.74H468.53z"/>
		</g>
		<g>
			<path d="M501.25,481.99c1.6,0.84,2.86,2.09,3.76,3.74c0.9,1.65,1.35,3.64,1.35,5.98v15.18h-5.28V492.5c0-2.31-0.58-4.07-1.73-5.3
				c-1.15-1.23-2.73-1.85-4.72-1.85s-3.57,0.62-4.74,1.85c-1.17,1.23-1.75,3-1.75,5.3v14.39h-5.33v-25.74h5.33v2.94
				c0.87-1.06,1.99-1.88,3.34-2.48c1.36-0.59,2.8-0.89,4.32-0.89C497.83,480.72,499.65,481.14,501.25,481.99z"/>
		</g>
		<g>
			<path d="M522.85,485.49v14.25c0,0.96,0.23,1.66,0.68,2.08c0.45,0.42,1.22,0.63,2.31,0.63h3.27v4.44h-4.2
				c-2.4,0-4.24-0.56-5.51-1.68c-1.28-1.12-1.92-2.94-1.92-5.46v-14.25h-3.04v-4.34h3.04v-6.4h5.37v6.4h6.26v4.34H522.85z"/>
		</g>
		<g>
			<path d="M542.05,505.64c-1.96-1.1-3.5-2.66-4.63-4.67c-1.12-2.01-1.68-4.34-1.68-6.98c0-2.62,0.58-4.94,1.73-6.96
				c1.15-2.02,2.72-3.58,4.72-4.67c1.99-1.09,4.22-1.64,6.68-1.64s4.69,0.55,6.68,1.64c1.99,1.09,3.57,2.65,4.72,4.67
				c1.15,2.02,1.73,4.34,1.73,6.96s-0.59,4.94-1.78,6.96c-1.18,2.02-2.8,3.59-4.83,4.7c-2.04,1.11-4.29,1.66-6.75,1.66
				C546.21,507.3,544.01,506.75,542.05,505.64z M552.49,501.7c1.2-0.66,2.17-1.63,2.92-2.94c0.75-1.31,1.12-2.9,1.12-4.76
				c0-1.87-0.36-3.45-1.07-4.74s-1.67-2.26-2.85-2.92c-1.18-0.65-2.46-0.98-3.83-0.98c-1.37,0-2.64,0.33-3.81,0.98
				c-1.17,0.66-2.1,1.63-2.78,2.92c-0.69,1.29-1.03,2.87-1.03,4.74c0,2.77,0.71,4.91,2.13,6.42c1.42,1.51,3.2,2.26,5.35,2.26
				C550.01,502.68,551.29,502.35,552.49,501.7z"/>
		</g>
		<g>
			<path d="M609.55,481.14l-15.79,37.84h-5.51l5.23-12.52l-10.14-25.32h5.93l7.24,19.62l7.52-19.62H609.55z"/>
		</g>
		<g>
			<path d="M652.29,500.25H638.7l-2.34,6.63h-5.56l11.63-32.51h6.17l11.63,32.51h-5.61L652.29,500.25z M650.8,495.9l-5.28-15.09
				l-5.33,15.09H650.8z"/>
		</g>
		<g>
			<path d="M668.62,487.01c1.07-2.01,2.56-3.56,4.46-4.65c1.9-1.09,4.08-1.64,6.54-1.64c3.11,0,5.69,0.74,7.73,2.22
				c2.04,1.48,3.42,3.59,4.13,6.33h-5.74c-0.47-1.28-1.21-2.27-2.24-2.99c-1.03-0.72-2.32-1.07-3.88-1.07
				c-2.18,0-3.92,0.77-5.21,2.31c-1.29,1.54-1.94,3.7-1.94,6.47s0.65,4.94,1.94,6.49s3.03,2.34,5.21,2.34
				c3.08,0,5.12-1.35,6.12-4.06h5.74c-0.75,2.62-2.15,4.7-4.2,6.24c-2.06,1.54-4.61,2.31-7.66,2.31c-2.46,0-4.64-0.55-6.54-1.66
				c-1.9-1.1-3.39-2.66-4.46-4.67c-1.08-2.01-1.61-4.34-1.61-6.98C667.01,491.34,667.54,489.01,668.62,487.01z"/>
		</g>
		<g>
			<path d="M700.15,487.03c1.07-1.99,2.54-3.54,4.39-4.65c1.85-1.11,3.9-1.66,6.14-1.66c2.02,0,3.79,0.4,5.3,1.19
				c1.51,0.79,2.72,1.78,3.62,2.97v-3.74h5.37v25.74h-5.37v-3.83c-0.9,1.21-2.13,2.23-3.69,3.04c-1.56,0.81-3.33,1.21-5.33,1.21
				c-2.21,0-4.24-0.57-6.07-1.71c-1.84-1.14-3.29-2.72-4.37-4.76c-1.08-2.04-1.61-4.35-1.61-6.94S699.07,489.02,700.15,487.03z
				 M718.51,489.36c-0.73-1.31-1.69-2.3-2.87-2.99c-1.18-0.68-2.46-1.03-3.83-1.03c-1.37,0-2.65,0.33-3.83,1.01
				c-1.18,0.67-2.14,1.65-2.87,2.94c-0.73,1.29-1.1,2.83-1.1,4.6s0.37,3.33,1.1,4.67c0.73,1.34,1.7,2.36,2.89,3.06
				c1.2,0.7,2.47,1.05,3.81,1.05c1.37,0,2.65-0.34,3.83-1.03c1.18-0.68,2.14-1.69,2.87-3.01c0.73-1.32,1.1-2.87,1.1-4.65
				S719.24,490.67,718.51,489.36z"/>
		</g>
		<g>
			<path d="M744.48,481.91c1.57-0.79,3.32-1.19,5.26-1.19c2.27,0,4.33,0.55,6.17,1.64c1.84,1.09,3.28,2.64,4.34,4.65
				c1.06,2.01,1.59,4.31,1.59,6.89s-0.53,4.9-1.59,6.94s-2.52,3.63-4.37,4.76c-1.85,1.14-3.9,1.71-6.14,1.71
				c-1.99,0-3.76-0.39-5.3-1.17c-1.54-0.78-2.76-1.78-3.67-2.99v3.74h-5.33v-34.57h5.33v12.66
				C741.67,483.73,742.9,482.71,744.48,481.91z M755.31,489.29c-0.73-1.29-1.7-2.27-2.89-2.94c-1.2-0.67-2.48-1.01-3.85-1.01
				c-1.34,0-2.61,0.34-3.81,1.03c-1.2,0.69-2.16,1.68-2.89,2.99c-0.73,1.31-1.1,2.85-1.1,4.63s0.37,3.32,1.1,4.65
				c0.73,1.32,1.7,2.33,2.89,3.01c1.2,0.68,2.47,1.03,3.81,1.03c1.37,0,2.65-0.35,3.85-1.05c1.2-0.7,2.16-1.72,2.89-3.06
				c0.73-1.34,1.1-2.89,1.1-4.67S756.05,490.59,755.31,489.29z"/>
		</g>
		<g>
			<path d="M770.45,487.03c1.07-1.99,2.54-3.54,4.39-4.65c1.85-1.11,3.9-1.66,6.14-1.66c2.02,0,3.79,0.4,5.3,1.19
				s2.72,1.78,3.62,2.97v-3.74h5.37v25.74h-5.37v-3.83c-0.9,1.21-2.13,2.23-3.69,3.04c-1.56,0.81-3.33,1.21-5.33,1.21
				c-2.21,0-4.24-0.57-6.07-1.71c-1.84-1.14-3.29-2.72-4.37-4.76c-1.08-2.04-1.61-4.35-1.61-6.94S769.37,489.02,770.45,487.03z
				 M788.81,489.36c-0.73-1.31-1.69-2.3-2.87-2.99c-1.18-0.68-2.46-1.03-3.83-1.03c-1.37,0-2.65,0.33-3.83,1.01
				c-1.18,0.67-2.14,1.65-2.87,2.94c-0.73,1.29-1.1,2.83-1.1,4.6s0.37,3.33,1.1,4.67c0.73,1.34,1.7,2.36,2.89,3.06
				c1.2,0.7,2.47,1.05,3.81,1.05c1.37,0,2.65-0.34,3.83-1.03c1.18-0.68,2.14-1.69,2.87-3.01c0.73-1.32,1.1-2.87,1.1-4.65
				S789.54,490.67,788.81,489.36z"/>
		</g>
		<g>
			<path d="M805.62,487.03c1.07-1.99,2.54-3.54,4.39-4.65c1.85-1.11,3.92-1.66,6.19-1.66c1.68,0,3.34,0.37,4.97,1.1
				c1.64,0.73,2.94,1.71,3.9,2.92v-12.42h5.37v34.57h-5.37v-3.88c-0.87,1.25-2.08,2.27-3.62,3.08c-1.54,0.81-3.31,1.21-5.3,1.21
				c-2.24,0-4.29-0.57-6.14-1.71c-1.85-1.14-3.32-2.72-4.39-4.76c-1.08-2.04-1.61-4.35-1.61-6.94S804.55,489.02,805.62,487.03z
				 M823.98,489.36c-0.73-1.31-1.69-2.3-2.87-2.99c-1.18-0.68-2.46-1.03-3.83-1.03c-1.37,0-2.65,0.33-3.83,1.01
				c-1.18,0.67-2.14,1.65-2.87,2.94c-0.73,1.29-1.1,2.83-1.1,4.6s0.37,3.33,1.1,4.67c0.73,1.34,1.7,2.36,2.89,3.06
				c1.2,0.7,2.47,1.05,3.81,1.05c1.37,0,2.65-0.34,3.83-1.03c1.18-0.68,2.14-1.69,2.87-3.01c0.73-1.32,1.1-2.87,1.1-4.65
				S824.71,490.67,823.98,489.36z"/>
		</g>
		<g>
			<path d="M845.49,505.64c-1.96-1.1-3.5-2.66-4.63-4.67c-1.12-2.01-1.68-4.34-1.68-6.98c0-2.62,0.58-4.94,1.73-6.96
				c1.15-2.02,2.72-3.58,4.72-4.67c1.99-1.09,4.22-1.64,6.68-1.64s4.69,0.55,6.68,1.64c1.99,1.09,3.57,2.65,4.72,4.67
				c1.15,2.02,1.73,4.34,1.73,6.96s-0.59,4.94-1.78,6.96c-1.18,2.02-2.8,3.59-4.83,4.7c-2.04,1.11-4.29,1.66-6.75,1.66
				C849.65,507.3,847.46,506.75,845.49,505.64z M855.93,501.7c1.2-0.66,2.17-1.63,2.92-2.94c0.75-1.31,1.12-2.9,1.12-4.76
				c0-1.87-0.36-3.45-1.07-4.74c-0.72-1.29-1.67-2.26-2.85-2.92c-1.18-0.65-2.46-0.98-3.83-0.98c-1.37,0-2.64,0.33-3.81,0.98
				c-1.17,0.66-2.1,1.63-2.78,2.92c-0.69,1.29-1.03,2.87-1.03,4.74c0,2.77,0.71,4.91,2.13,6.42c1.42,1.51,3.2,2.26,5.35,2.26
				C853.45,502.68,854.74,502.35,855.93,501.7z"/>
		</g>
		<g>
			<path d="M878.12,506.2c-1.6-0.73-2.87-1.73-3.81-2.99c-0.93-1.26-1.43-2.67-1.49-4.23h5.51c0.09,1.09,0.62,2,1.56,2.73
				c0.95,0.73,2.14,1.1,3.58,1.1c1.49,0,2.65-0.29,3.48-0.86s1.24-1.32,1.24-2.22c0-0.97-0.46-1.68-1.38-2.15
				c-0.92-0.47-2.37-0.98-4.37-1.54c-1.93-0.53-3.5-1.04-4.72-1.54c-1.21-0.5-2.27-1.26-3.15-2.29c-0.89-1.03-1.33-2.38-1.33-4.06
				c0-1.37,0.4-2.62,1.21-3.76c0.81-1.14,1.97-2.03,3.48-2.69s3.25-0.98,5.21-0.98c2.93,0,5.29,0.74,7.08,2.22
				c1.79,1.48,2.75,3.5,2.87,6.05h-5.33c-0.09-1.15-0.56-2.07-1.4-2.76c-0.84-0.68-1.98-1.03-3.41-1.03c-1.4,0-2.48,0.26-3.22,0.79
				c-0.75,0.53-1.12,1.23-1.12,2.1c0,0.69,0.25,1.26,0.75,1.73c0.5,0.47,1.1,0.83,1.82,1.1c0.72,0.27,1.78,0.6,3.18,1.01
				c1.87,0.5,3.4,1.01,4.6,1.52c1.2,0.51,2.23,1.27,3.11,2.27c0.87,1,1.32,2.32,1.36,3.97c0,1.46-0.4,2.77-1.21,3.92
				c-0.81,1.15-1.95,2.06-3.43,2.71c-1.48,0.65-3.22,0.98-5.21,0.98C881.54,507.3,879.72,506.94,878.12,506.2z"/>
		</g>
	</g>
	<g>
		<g>
			<path d="M379.99,82.14h-14.03v-6.65h35.93v6.65h-14.03v35.69h-7.86V82.14z"/>
		</g>
		<g>
			<path d="M439.51,115.62c-3.47-1.88-6.19-4.48-8.17-7.8c-1.98-3.33-2.96-7.05-2.96-11.16c0-4.12,0.99-7.83,2.96-11.16
				c1.98-3.33,4.7-5.93,8.17-7.8c3.47-1.88,7.36-2.81,11.67-2.81c4.32,0,8.21,0.94,11.67,2.81c3.47,1.87,6.19,4.46,8.17,7.77
				c1.98,3.31,2.96,7.04,2.96,11.19c0,4.15-0.99,7.88-2.96,11.19c-1.98,3.31-4.7,5.9-8.17,7.77c-3.47,1.87-7.36,2.81-11.67,2.81
				C446.87,118.44,442.97,117.5,439.51,115.62z M458.8,109.63c2.26-1.27,4.03-3.04,5.32-5.32c1.29-2.28,1.93-4.83,1.93-7.65
				c0-2.82-0.64-5.37-1.93-7.65c-1.29-2.28-3.07-4.05-5.32-5.32c-2.26-1.27-4.8-1.91-7.62-1.91c-2.82,0-5.36,0.64-7.62,1.91
				c-2.26,1.27-4.03,3.05-5.32,5.32c-1.29,2.28-1.94,4.83-1.94,7.65c0,2.82,0.65,5.37,1.94,7.65c1.29,2.28,3.06,4.05,5.32,5.32
				c2.26,1.27,4.8,1.91,7.62,1.91C454,111.54,456.54,110.91,458.8,109.63z"/>
		</g>
		<g>
			<path d="M506.53,75.49h18.51c4.52,0,8.53,0.88,12.04,2.63c3.51,1.75,6.23,4.24,8.17,7.44c1.93,3.21,2.9,6.91,2.9,11.1
				c0,4.19-0.97,7.89-2.9,11.1c-1.94,3.21-4.66,5.68-8.17,7.44c-3.51,1.75-7.52,2.63-12.04,2.63h-18.51V75.49z M524.67,111.18
				c3.1,0,5.84-0.59,8.2-1.78c2.36-1.19,4.17-2.88,5.44-5.08c1.27-2.2,1.91-4.75,1.91-7.65c0-2.91-0.63-5.46-1.91-7.65
				c-1.27-2.2-3.08-3.89-5.44-5.08c-2.36-1.19-5.09-1.79-8.2-1.79h-10.28v29.03H524.67z"/>
		</g>
		<g>
			<path d="M588.78,115.62c-3.47-1.88-6.19-4.48-8.17-7.8c-1.98-3.33-2.96-7.05-2.96-11.16c0-4.12,0.99-7.83,2.96-11.16
				c1.98-3.33,4.7-5.93,8.17-7.8c3.47-1.88,7.36-2.81,11.67-2.81c4.32,0,8.21,0.94,11.67,2.81c3.47,1.87,6.19,4.46,8.17,7.77
				s2.96,7.04,2.96,11.19c0,4.15-0.99,7.88-2.96,11.19c-1.98,3.31-4.7,5.9-8.17,7.77c-3.47,1.87-7.36,2.81-11.67,2.81
				C596.15,118.44,592.25,117.5,588.78,115.62z M608.08,109.63c2.26-1.27,4.03-3.04,5.32-5.32c1.29-2.28,1.93-4.83,1.93-7.65
				c0-2.82-0.64-5.37-1.93-7.65c-1.29-2.28-3.07-4.05-5.32-5.32c-2.26-1.27-4.8-1.91-7.62-1.91s-5.36,0.64-7.62,1.91
				c-2.26,1.27-4.03,3.05-5.32,5.32s-1.94,4.83-1.94,7.65c0,2.82,0.65,5.37,1.94,7.65s3.06,4.05,5.32,5.32
				c2.26,1.27,4.8,1.91,7.62,1.91S605.82,110.91,608.08,109.63z"/>
		</g>
		<g>
			<path d="M728.39,111.24v6.59h-31.76V75.49h30.91v6.59h-23.04v11.01h20.44v6.47h-20.44v11.67H728.39z"/>
		</g>
		<g>
			<path d="M798.91,75.49v42.34h-6.47l-23.35-28.67v28.67h-7.8V75.49h6.47l23.35,28.67V75.49H798.91z"/>
		</g>
	</g>
	<g>
		<path d="M1024.15,400.36H972.5c-15.51-0.43-21.97-2.15-21.97-19.39V161.85c0-19.82,8.62-20.25,29.73-20.25v-3.01h-77.13v3.01
			c21.11,0,29.73,0.43,29.73,20.25v219.98c0,19.82-8.62,20.25-29.73,20.25v3.02l121.04-1.1
			C1024.03,402.79,1024.02,401.57,1024.15,400.36"/>
		<g>
			<path d="M903.13,406.93c-0.48,0-0.94-0.19-1.29-0.53c-0.35-0.34-0.54-0.81-0.54-1.3v-3.02c0-1.01,0.82-1.83,1.83-1.83
				c21.66,0,27.9-0.78,27.9-18.42V161.85c0-17.64-6.24-18.42-27.9-18.42c-1.01,0-1.83-0.82-1.83-1.83v-3.01
				c0-1.01,0.82-1.83,1.83-1.83h77.13c1.01,0,1.83,0.82,1.83,1.83v3.01c0,1.01-0.82,1.83-1.83,1.83c-21.66,0-27.9,0.78-27.9,18.42
				v219.12c0,15.68,4.93,17.14,20.2,17.56l51.6,0c0.52,0,1.01,0.22,1.36,0.61c0.35,0.39,0.51,0.9,0.46,1.42
				c-0.11,1.07-0.11,2.15,0.02,3.23c0.06,0.52-0.1,1.03-0.44,1.42c-0.34,0.39-0.84,0.61-1.35,0.62l-121.04,1.1
				C903.15,406.92,903.14,406.93,903.13,406.93z M919.24,140.41c10.07,1.44,15.45,6.14,15.45,21.44v219.98
				c0,14.79-5.03,19.67-14.47,21.29l102.01-0.93c0,0,0,0,0,0H972.5c-16.2-0.45-23.8-2.69-23.8-21.22V161.85
				c0-15.3,5.38-20,15.45-21.44H919.24z"/>
		</g>
	</g>
	<g>
		<path d="M638.23,402.13v2.82H576.9v-2.82c19.77,0,27.84-0.4,27.84-18.96V161.64c0-18.56-8.07-18.96-27.84-18.96v-2.82h41.16
			l107.33,213.04l103.7-213.04h38.73v2.82c-19.77,0-27.84,0.41-27.84,18.96l-2.64,92.87c0,18.56,8.07,18.96,27.84,18.96v2.82h-72.22
			v-2.82c19.77,0,27.84-0.4,27.84-18.96l2.64-91.66L722.16,372.25h-5.65L610.39,161.23v221.94
			C610.39,401.73,618.46,402.13,638.23,402.13"/>
		<g>
			<path d="M638.23,406.79H576.9c-1.01,0-1.83-0.82-1.83-1.83v-2.82c0-1.01,0.82-1.83,1.83-1.83c20.19,0,26.01-0.73,26.01-17.14
				V161.64c0-16.41-5.82-17.14-26.01-17.14c-1.01,0-1.83-0.82-1.83-1.83v-2.82c0-1.01,0.82-1.83,1.83-1.83h41.16
				c0.69,0,1.32,0.39,1.63,1.01l105.67,209.74l102.08-209.72c0.31-0.63,0.94-1.03,1.64-1.03h38.73c1.01,0,1.83,0.82,1.83,1.83v2.82
				c0,1.01-0.82,1.83-1.83,1.83c-20.19,0-26.01,0.73-26.01,17.14l-2.64,92.92c0,16.36,5.82,17.09,26.01,17.09
				c1.01,0,1.83,0.82,1.83,1.83v2.83c0,1.01-0.82,1.83-1.83,1.83h-72.22c-1.01,0-1.83-0.82-1.83-1.83v-2.83
				c0-1.01,0.82-1.83,1.83-1.83c20.19,0,26.01-0.73,26.01-17.14l2.39-83.18L723.8,373.05c-0.31,0.63-0.94,1.03-1.65,1.03h-5.65
				c-0.69,0-1.32-0.39-1.63-1.01L612.22,168.93v214.24c0,16.41,5.82,17.14,26.01,17.14c1.01,0,1.83,0.82,1.83,1.83v2.82
				C640.06,405.97,639.24,406.79,638.23,406.79z M593.43,403.13h28.28c-8.58-1.6-13.14-6.28-13.14-19.96V161.23
				c0-0.85,0.58-1.58,1.41-1.78c0.83-0.19,1.67,0.2,2.05,0.96l105.61,210.02h3.38l100.78-208.38c0.38-0.77,1.24-1.18,2.08-0.98
				c0.84,0.2,1.42,0.97,1.39,1.83l-2.64,91.66c0,13.65-4.56,18.31-13.13,19.91h39.17c-8.58-1.6-13.14-6.27-13.14-19.96l2.64-92.92
				c0-13.64,4.56-18.31,13.12-19.91h-21.04l-103.2,212.01c-0.3,0.62-0.94,1.02-1.63,1.03c0,0-0.01,0-0.01,0
				c-0.69,0-1.32-0.39-1.63-1.01L616.93,141.68h-23.5c8.57,1.6,13.13,6.28,13.13,19.96v221.53
				C606.57,396.85,602,401.53,593.43,403.13z"/>
		</g>
	</g>
	<g>
		<path d="M95.16,401.38v2.82H33.83v-2.82c19.77,0,27.84-0.4,27.84-18.96V100.08c0-18.56-8.07-18.96-27.84-18.96V78.3h41.16
			l107.33,188.5l103.7-188.5h38.73v2.82c-19.77,0-27.84,0.41-27.84,18.96l-2.64,154.77c0,18.56,8.07,18.96,27.84,18.96v2.82h-72.22
			v-2.82c19.77,0,27.84-0.4,27.84-18.96l2.64-153.56L179.08,286.16h-5.65L67.32,99.68v282.73
			C67.32,400.97,75.39,401.38,95.16,401.38"/>
		<g>
			<path d="M95.16,406.03H33.83c-1.01,0-1.83-0.82-1.83-1.83v-2.83c0-1.01,0.82-1.83,1.83-1.83c20.19,0,26.01-0.73,26.01-17.14
				V100.08c0-16.41-5.82-17.14-26.01-17.14c-1.01,0-1.83-0.82-1.83-1.83V78.3c0-1.01,0.82-1.83,1.83-1.83h41.16
				c0.66,0,1.26,0.35,1.59,0.92l105.71,185.66L284.41,77.42c0.32-0.58,0.93-0.95,1.6-0.95h38.73c1.01,0,1.83,0.82,1.83,1.83v2.82
				c0,1.01-0.82,1.83-1.83,1.83c-20.19,0-26.01,0.73-26.01,17.14l-2.64,154.8c0,16.38,5.82,17.11,26.01,17.11
				c1.01,0,1.83,0.82,1.83,1.83v2.82c0,1.01-0.82,1.83-1.83,1.83h-72.22c-1.01,0-1.83-0.82-1.83-1.83v-2.82
				c0-1.01,0.82-1.83,1.83-1.83c20.19,0,26.01-0.73,26.01-17.14l2.51-146.19l-97.72,178.37c-0.32,0.59-0.94,0.95-1.6,0.95h-5.65
				c-0.66,0-1.26-0.35-1.59-0.92L69.14,106.59v275.83c0,16.41,5.82,17.14,26.01,17.14c1.01,0,1.83,0.82,1.83,1.83v2.83
				C96.98,405.21,96.17,406.03,95.16,406.03z M50.35,402.38h28.28c-8.58-1.6-13.15-6.27-13.15-19.96V99.68
				c0-0.83,0.56-1.55,1.36-1.77c0.8-0.21,1.65,0.14,2.06,0.86L174.5,284.33h3.5l100.75-183.92c0.4-0.74,1.26-1.1,2.07-0.89
				c0.81,0.22,1.37,0.96,1.36,1.8l-2.64,153.56c0,13.66-4.56,18.33-13.13,19.93h39.17c-8.58-1.6-13.14-6.28-13.14-19.96l2.64-154.8
				c0-13.65,4.56-18.33,13.12-19.93h-21.11L183.91,267.67c-0.32,0.58-0.93,0.94-1.59,0.95c0,0-0.01,0-0.01,0
				c-0.66,0-1.26-0.35-1.59-0.92L73.92,80.12H50.37c8.57,1.6,13.13,6.28,13.13,19.96v282.33C63.5,396.1,58.93,400.78,50.35,402.38z"
				/>
		</g>
	</g>
	<g>
		<path d="M826.51,433.15c-93.62,0-93.62-145.5,0-145.5C919.91,287.65,919.91,433.15,826.51,433.15 M830.93,428.74
			c82.8,0,74.19-136.67-9.05-136.67C738.86,292.07,748.13,428.74,830.93,428.74"/>
		<g>
			<path d="M826.51,434.98c-22.24,0-40.93-8.08-54.05-23.37c-11.6-13.53-17.99-31.71-17.99-51.21s6.39-37.68,17.99-51.21
				c13.12-15.29,31.81-23.37,54.05-23.37c22.19,0,40.84,8.08,53.92,23.37c11.58,13.53,17.95,31.71,17.95,51.2
				c0,19.49-6.38,37.68-17.95,51.2C867.35,426.9,848.7,434.98,826.51,434.98z M780.53,306.12c-1.85,1.7-3.62,3.52-5.29,5.46
				c-11.03,12.86-17.11,30.2-17.11,48.83c0,34.16,21.4,70.92,68.38,70.92c6.71,0,13.08-0.77,19.04-2.29
				c-4.61,1.02-9.5,1.53-14.62,1.53c-44.64,0-68.72-39.06-68.72-75.8c0-17.25,5.19-33.08,14.63-44.58
				C778.01,308.75,779.24,307.4,780.53,306.12z M821.88,293.89c-17.63,0-32.23,6.43-42.22,18.61c-8.9,10.85-13.8,25.85-13.8,42.26
				c0,34.98,22.8,72.15,65.07,72.15c17.62,0,32.23-6.46,42.24-18.68c8.93-10.9,13.84-25.95,13.84-42.39
				C887.01,330.96,864.19,293.89,821.88,293.89z M821.88,290.24c44.68,0,68.79,38.95,68.79,75.6c0,17.28-5.21,33.16-14.67,44.71
				c-1.75,2.14-3.63,4.11-5.63,5.92c2.6-2.18,5.04-4.59,7.29-7.23c11.01-12.86,17.07-30.21,17.07-48.83
				c0-34.16-21.35-70.92-68.22-70.92c-6.3,0-12.3,0.68-17.94,2.01C812.79,290.66,817.24,290.24,821.88,290.24z"/>
		</g>
	</g>
	<g>
		<path d="M478.78,381.09l-97.49-194.76h-5.62L279.13,380.8c-9.13,20.71-14.04,20.71-32.64,20.71v2.46h58.27v-2.46
			c-21.06,0-28.73-2.54-17.2-27.73c19.9-43.46,86.36-170.59,86.36-170.59s65.68,124.91,85.91,167.38
			c13.86,29.09,12.99,31.94-7.37,31.94v2.46h57.21v-2.46C490.72,402.5,488.26,399.34,478.78,381.09"/>
		<g>
			<path d="M509.67,406.79h-57.21c-1.01,0-1.83-0.82-1.83-1.83v-2.46c0-0.48,0.19-0.95,0.54-1.29s0.81-0.54,1.29-0.54
				c7.81,0,12.93-0.45,14.34-2.67c1.97-3.12-1.36-11.42-8.62-26.66c-18.21-38.22-74.01-144.69-84.26-164.22
				c-10.3,19.74-66.79,128.26-84.71,167.41c-5.01,10.95-6.35,17.59-4.22,20.91c2.27,3.54,8.97,4.23,19.76,4.23
				c1.01,0,1.83,0.82,1.83,1.83v2.46c0,1.01-0.82,1.83-1.83,1.83h-58.27c-1.01,0-1.83-0.82-1.83-1.83v-2.46
				c0-1.01,0.82-1.83,1.83-1.83c18.48,0,22.33,0,30.97-19.62l96.58-194.54c0.31-0.62,0.94-1.01,1.64-1.01h5.62
				c0.69,0,1.32,0.39,1.63,1.01l97.49,194.74c9.4,18.1,11.29,20.41,29.26,20.41c1.01,0,1.83,0.82,1.83,1.83v2.46
				C511.5,405.97,510.68,406.79,509.67,406.79z M465.42,403.13h30.94c-8.96-2.25-12.41-8.12-19.2-21.2c0-0.01-0.01-0.02-0.01-0.02
				l-96.99-193.75h-3.35l-96.04,193.45c-5.93,13.46-10.38,18.58-17.43,20.53h26.12c-3.53-0.87-6.01-2.33-7.55-4.72
				c-2.94-4.59-1.76-11.88,3.97-24.4c19.69-43.01,85.74-169.41,86.41-170.68c0.31-0.6,0.94-0.98,1.62-0.98c0,0,0,0,0,0
				c0.68,0,1.3,0.38,1.62,0.98c0.66,1.25,65.93,125.43,85.94,167.44c8.72,18.29,11.3,25.6,8.41,30.18
				C468.93,401.46,467.47,402.47,465.42,403.13z"/>
		</g>
	</g>
	<g>
		<path d="M501.33,139.87h-90.91l1.75,3.86h89.15c91.61,0,91.61,123.2,0,123.2h-44.59c-0.07,0.91-0.31,1.77-0.74,2.58
			c-0.24,0.74-0.64,1.38-1.11,1.98h46.43c9.34,0,23.38-0.8,18.6-1.75C614.35,256.05,608.03,139.87,501.33,139.87"/>
		<g>
			<path d="M501.33,273.32H454.9c-0.7,0-1.34-0.4-1.64-1.03c-0.31-0.63-0.23-1.38,0.2-1.93c0.41-0.52,0.66-0.97,0.81-1.42
				c0.03-0.1,0.07-0.2,0.12-0.29c0.31-0.58,0.48-1.19,0.53-1.87c0.07-0.95,0.87-1.69,1.82-1.69h44.59
				c45.95,0,66.88-30.98,66.88-59.77c0-28.79-20.93-59.77-66.88-59.77h-89.15c-0.72,0-1.37-0.42-1.66-1.07l-1.75-3.86
				c-0.26-0.57-0.21-1.22,0.13-1.75c0.34-0.52,0.91-0.84,1.54-0.84h90.91c56.74,0,84.42,31.71,86.69,63.14
				c2.05,28.42-17.65,62.15-65.6,70.02C521.54,272.3,517.88,273.32,501.33,273.32z M519.98,271.63h0.01H519.98z M457.95,269.67
				h43.38c6.65,0,13.72-0.37,16.97-0.75c0.26-0.52,0.76-0.9,1.37-0.98c47.25-6.85,66.66-39.27,64.7-66.49
				c-2.14-29.74-28.65-59.74-83.04-59.74h-88.07l0.09,0.2h87.98c21.72,0,39.99,6.84,52.83,19.79
				c11.42,11.52,17.71,27.01,17.71,43.64c0,16.62-6.29,32.12-17.71,43.64c-12.84,12.95-31.1,19.79-52.83,19.79h-43.06
				C458.18,269.07,458.07,269.37,457.95,269.67z"/>
		</g>
	</g>
	<path d="M515.85,266.77c0.32-0.05,0.64-0.11,0.96-0.16c-0.44-0.06-0.87-0.12-1.31-0.19c-1.33,1.02-2.66,2.04-4,3.04
		c34.65,7.53,43.6,41.67,56.95,72.62h30.92v-2.31C571.69,339.78,580.93,281.01,515.85,266.77"/>
	<g>
		<g>
			<path d="M382.88,176.99c0,0,15.31-31.72,16.07-31.9c0.76-0.18,3.51,13.32,3.51,13.32l-16.13,20.72L382.88,176.99z"/>
		</g>
		<g>
			<path d="M386.32,180.95c-0.33,0-0.66-0.09-0.96-0.27l-3.45-2.13c-0.8-0.49-1.09-1.51-0.68-2.35
				c15.68-32.51,16.22-32.64,17.29-32.89c0.48-0.11,1.05-0.01,1.47,0.26c0.7,0.45,1.49,0.96,4.25,14.48
				c0.11,0.52-0.02,1.07-0.35,1.49l-16.13,20.72C387.41,180.71,386.87,180.95,386.32,180.95z M385.24,176.3l0.65,0.4l14.6-18.76
				c-0.62-3-1.35-6.22-1.94-8.54C395.55,155.15,389.52,167.44,385.24,176.3z"/>
		</g>
	</g>
</g>
</svg>
